# xmcd CD database file
#
# Track frame offsets:
#	150
#	16085
#	30993
#	45747
#	59714
#	74871
#	87571
#	101346
#	113489
#	127149
#
# Disc length: 1971 seconds
#
# Revision: 0
# Processed by: cddbd v1.4PL0 Copyright (c) Steve Scherf et al.
# Submitted via: CDex 1.50
#
DISCID=8807b10a
DTITLE=Rick Springfield - Working Class Dog
DYEAR=1981
DGENRE=Male-Rock
TTITLE0=Love Is Alright Tonite
TTITLE1=Jessie's Girl
TTITLE2=Hole In My Heart
TTITLE3=Carry Me Away
TTITLE4=I've Done Everything For You
TTITLE5=The Light Of Love
TTITLE6=Everbody's Girl
TTITLE7=Daddy's Pearl
TTITLE8=Red Hot and Blue Love
TTITLE9=Inside Silvia
EXTD=YEAR: 1981
EXTT0=
EXTT1=
EXTT2=
EXTT3=
EXTT4=
EXTT5=
EXTT6=
EXTT7=
EXTT8=
EXTT9=
PLAYORDER=
